<?xml version="1.0" standalone="no"?>
<!DOCTYPE svg PUBLIC "-//W3C//DTD SVG 20010904//EN"
 "http://www.w3.org/TR/2001/REC-SVG-20010904/DTD/svg10.dtd">
<svg version="1.0" xmlns="http://www.w3.org/2000/svg"
 width="167.000000pt" height="167.000000pt" viewBox="0 0 167.000000 167.000000"
 preserveAspectRatio="xMidYMid meet">

<g transform="translate(0.000000,167.000000) scale(0.100000,-0.100000)"
fill="#000000" stroke="none">
<path d="M702 1629 c-87 -15 -202 -57 -277 -101 -91 -53 -230 -192 -283 -283
-104 -178 -137 -408 -87 -606 23 -89 94 -233 152 -304 107 -131 263 -232 428
-276 122 -32 291 -30 410 5 230 69 401 209 501 411 63 129 86 224 86 365 0
245 -104 464 -294 620 -71 58 -214 131 -303 155 -73 19 -261 28 -333 14z m324
-59 c252 -64 455 -261 536 -520 19 -64 23 -96 23 -215 0 -131 -2 -146 -32
-230 -40 -117 -89 -199 -166 -282 -98 -105 -214 -175 -354 -215 -101 -29 -285
-31 -382 -4 -279 76 -482 285 -552 566 -28 109 -23 278 11 385 124 394 518
615 916 515z"/>
<path d="M701 1560 c-159 -34 -262 -90 -382 -210 -78 -78 -102 -110 -136 -180
-60 -123 -77 -194 -77 -330 0 -129 22 -226 73 -328 66 -131 185 -254 309 -320
209 -112 485 -112 694 0 173 92 312 270 365 468 24 90 24 262 -1 358 -36 142
-127 284 -243 382 -128 108 -268 160 -443 166 -63 2 -135 -1 -159 -6z m109
-49 c0 -5 3 -23 6 -40 6 -28 4 -31 -18 -31 -13 0 -29 5 -36 12 -9 9 -12 8 -12
-5 0 -10 8 -17 20 -17 13 0 20 -7 20 -20 0 -11 -7 -20 -15 -20 -9 0 -15 -9
-14 -22 1 -17 2 -19 6 -5 3 11 14 17 33 17 25 0 29 -4 32 -32 3 -32 3 -32 16
-11 7 12 15 56 19 98 3 42 10 78 15 81 16 10 97 -7 114 -23 39 -40 -8 -153
-57 -138 -16 5 -19 1 -19 -24 l0 -29 -77 -1 c-69 0 -145 -14 -194 -35 -11 -5
-20 4 -32 30 -10 20 -20 34 -23 31 -3 -3 2 -20 13 -37 18 -31 18 -31 -7 -50
-14 -11 -27 -20 -30 -19 -4 0 -62 114 -98 191 -5 10 73 48 99 48 32 0 59 -28
59 -61 0 -15 4 -29 8 -31 5 -1 20 -21 35 -43 l27 -40 0 35 c0 19 -5 60 -10 90
-17 97 -18 94 15 101 45 10 105 10 105 0z m324 -58 c52 -25 54 -27 44 -55 -6
-15 -14 -30 -19 -33 -14 -9 -49 14 -49 33 0 15 -2 15 -10 2 -7 -11 -5 -18 5
-26 21 -16 8 -46 -18 -42 -15 2 -23 -3 -25 -17 -4 -16 -2 -17 11 -6 12 9 21
10 36 2 18 -10 19 -15 9 -39 -19 -44 -22 -44 -84 -15 -32 15 -60 28 -62 29 -1
0 16 37 38 80 22 43 42 87 44 97 7 23 16 22 80 -10z m-683 -109 c19 -23 -1
-50 -36 -47 l-26 2 37 -42 c21 -23 41 -43 46 -45 11 -5 10 12 -2 24 -7 7 -4
16 10 29 20 18 21 18 46 -7 25 -24 25 -27 11 -55 -18 -35 -57 -57 -85 -49 -11
4 -41 29 -66 56 -33 36 -46 57 -46 79 0 54 79 93 111 55z m840 6 c10 -6 26
-25 35 -42 15 -29 15 -32 -5 -51 -21 -21 -21 -21 -36 -2 -8 11 -15 26 -15 33
0 6 -4 12 -10 12 -13 0 -13 -1 4 -42 18 -42 5 -74 -37 -98 -24 -13 -30 -13
-54 0 -15 9 -34 28 -43 43 -14 25 -13 28 8 49 18 18 26 21 40 11 16 -10 18 -8
14 19 -3 21 2 36 19 54 24 26 49 30 80 14z m-380 -100 c68 -13 143 -49 197
-95 35 -30 40 -40 32 -55 -15 -29 -12 -54 11 -79 l21 -22 -26 -20 c-28 -22
-36 -75 -15 -96 9 -9 4 -21 -19 -48 -18 -19 -35 -47 -38 -61 -10 -39 17 -96
59 -123 44 -29 43 -34 -3 -21 -43 12 -77 44 -91 87 -14 42 11 98 58 129 31 20
31 21 12 37 -29 25 -26 82 6 103 23 15 24 18 10 34 -20 22 -19 59 1 81 15 16
13 20 -28 50 -211 155 -497 84 -607 -151 -22 -48 -26 -68 -26 -160 0 -93 3
-111 27 -163 55 -117 170 -206 299 -230 116 -21 266 29 348 118 21 23 40 48
43 56 3 8 9 11 13 7 13 -12 -127 -142 -177 -166 -170 -79 -356 -45 -483 89
-78 81 -107 150 -113 264 -3 74 0 101 18 154 47 141 155 241 295 275 74 18
107 19 176 6z m-57 -286 c23 -22 20 -70 -4 -87 -17 -12 -18 -16 -6 -26 11 -9
15 -7 19 9 5 18 36 28 49 15 3 -4 2 -24 -4 -47 -8 -36 -6 -44 14 -65 l23 -24
-50 1 c-28 1 -64 -2 -80 -5 -64 -14 -112 68 -69 116 12 13 13 22 5 38 -16 29
-14 48 9 71 24 24 72 26 94 4z m-563 -84 c29 -16 25 -65 -6 -86 -55 -36 -105
32 -63 84 13 15 43 16 69 2z m1153 -6 c40 -40 -7 -109 -59 -86 -32 15 -41 47
-21 77 19 29 57 33 80 9z m-876 -46 c7 -7 12 -26 12 -43 0 -46 54 -148 102
-190 66 -61 119 -80 220 -80 48 0 80 -3 70 -7 -34 -13 -157 -7 -209 10 -62 22
-128 71 -172 128 -36 48 -77 155 -68 179 8 18 28 20 45 3z m-124 -240 l19 -31
-34 -30 -34 -29 38 22 c30 18 40 20 52 10 13 -11 12 -17 -10 -46 -31 -40 -26
-45 9 -8 24 26 24 26 50 8 14 -11 26 -21 26 -24 0 -5 -163 -110 -183 -119 -4
-1 -17 5 -27 14 -19 17 -19 18 8 53 l27 36 -36 -22 c-35 -21 -37 -21 -53 -4
-9 10 -16 22 -16 26 0 4 19 31 43 59 24 29 54 67 66 85 12 17 26 32 30 32 3 0
15 -14 25 -32z m856 -9 c0 -6 -5 -20 -11 -32 -9 -18 -9 -20 2 -9 22 20 68 14
94 -13 32 -31 31 -56 -1 -94 -28 -34 -49 -38 -77 -17 -16 12 -17 17 -5 36 8
12 20 19 31 16 18 -4 24 9 7 19 -5 3 -20 -1 -32 -9 -34 -24 -73 -20 -97 10
-29 36 -27 50 14 91 29 29 37 33 55 23 11 -6 20 -15 20 -21z m158 -12 c5 -25
-15 -46 -38 -40 -21 6 -35 36 -25 53 11 18 59 7 63 -13z m-260 -89 c13 -22 14
-29 2 -42 -7 -10 -20 -14 -31 -11 -11 4 -19 2 -19 -4 0 -17 20 -23 35 -11 11
9 16 7 24 -8 7 -13 7 -22 -1 -30 -7 -7 -7 -16 1 -29 10 -17 10 -17 11 3 0 28
35 60 46 42 4 -7 14 -23 21 -34 13 -20 10 -24 -35 -58 -28 -20 -54 -36 -60
-36 -6 0 -22 21 -37 46 -15 26 -43 63 -61 84 l-34 37 53 41 c28 22 56 39 60
38 5 -1 16 -13 25 -28z m-590 -45 c15 -9 28 -18 30 -19 5 -3 -59 -188 -68
-198 -8 -8 -114 46 -125 64 -6 10 115 170 128 170 4 0 20 -8 35 -17z m423 -72
c0 -9 11 -38 25 -66 13 -27 22 -40 20 -27 -4 20 17 42 39 42 12 0 36 -73 27
-82 -5 -5 -32 -18 -61 -28 l-51 -20 -9 22 c-5 13 -19 51 -31 86 -13 34 -27 65
-31 68 -18 10 -8 30 19 40 29 12 51 -3 53 -35z m-278 22 c49 -6 54 -13 41 -60
-7 -27 -54 -33 -54 -8 0 8 -4 15 -10 15 -16 0 -12 -30 5 -36 24 -9 18 -42 -7
-46 -19 -2 -24 -10 -26 -41 -3 -35 -6 -38 -25 -33 -12 3 -28 6 -36 6 -9 0 -12
8 -8 23 3 12 10 41 16 65 11 40 19 90 20 121 1 8 7 11 19 6 9 -3 38 -9 65 -12z
m193 -28 c3 -14 4 -32 0 -40 -6 -17 -46 -21 -46 -5 0 6 -4 10 -10 10 -5 0 -10
-7 -10 -15 0 -8 9 -15 20 -15 15 0 20 -7 20 -25 0 -16 -6 -25 -16 -25 -13 0
-15 -7 -9 -36 4 -26 2 -39 -7 -45 -20 -13 -58 -11 -58 4 -2 44 -9 134 -15 167
-6 38 -6 39 27 43 85 10 97 8 104 -18z"/>
<path d="M930 1434 c0 -14 4 -23 10 -19 6 3 10 15 10 26 0 10 -4 19 -10 19 -5
0 -10 -12 -10 -26z"/>
<path d="M556 1385 c4 -8 8 -15 10 -15 2 0 4 7 4 15 0 8 -4 15 -10 15 -5 0 -7
-7 -4 -15z"/>
<path d="M1197 1233 c-4 -3 -7 -11 -7 -17 0 -6 5 -5 12 2 6 6 9 14 7 17 -3 3
-9 2 -12 -2z"/>
<path d="M795 930 c-7 -12 2 -30 16 -30 5 0 9 9 9 20 0 21 -15 27 -25 10z"/>
<path d="M786 831 c-11 -17 13 -51 36 -51 21 0 21 0 -3 28 -13 15 -25 28 -25
30 -1 2 -5 -1 -8 -7z"/>
<path d="M1255 530 c3 -5 8 -10 11 -10 2 0 4 5 4 10 0 6 -5 10 -11 10 -5 0 -7
-4 -4 -10z"/>
<path d="M510 291 c0 -5 -3 -18 -6 -28 -5 -16 -4 -16 10 1 18 23 20 36 6 36
-5 0 -10 -4 -10 -9z"/>
</g>
</svg>
